<?xml version="1.0" encoding="UTF-8" standalone="no"?>
<!DOCTYPE svg PUBLIC "-//W3C//DTD SVG 1.1//EN" "http://www.w3.org/Graphics/SVG/1.1/DTD/svg11.dtd">
<svg width="100%" height="100%" viewBox="0 0 900 900" version="1.1" xmlns="http://www.w3.org/2000/svg" xmlns:xlink="http://www.w3.org/1999/xlink" xml:space="preserve" xmlns:serif="http://www.serif.com/" style="fill-rule:evenodd;clip-rule:evenodd;stroke-linejoin:round;stroke-miterlimit:2;">
    <g id="Artboard1" transform="matrix(1.8,0,0,1.8,0,0)">
        <rect x="0" y="0" width="500" height="500" style="fill:none;"/>
        <clipPath id="_clip1">
            <rect x="0" y="0" width="500" height="500"/>
        </clipPath>
        <g clip-path="url(#_clip1)">
            <g transform="matrix(2.428433,0,0,0.796271,-99.6927,101.864426)">
                <path d="M144.102,185.724L144.102,290.483L109.752,290.483L109.752,500L75.402,500L75.402,290.483L41.052,290.483L41.052,185.724L144.102,185.724ZM144.102,185.724L144.102,80.965L178.452,80.965L178.452,-128.552L212.802,-128.552L212.802,80.965L247.151,80.965L247.151,185.724L144.102,185.724ZM247.151,500L178.452,500L178.452,290.483L247.151,290.483L247.151,500ZM41.052,80.965L41.052,-128.552L109.752,-128.552L109.752,80.965L41.052,80.965ZM161.277,-76.173L161.277,28.586L126.927,28.586L126.927,-76.173L161.277,-76.173ZM161.277,342.862L161.277,447.621L126.927,447.621L126.927,342.862L161.277,342.862Z" style="fill:rgb(19,91,232);"/>
            </g>
        </g>
    </g>
</svg>
